<svg width="225" height="225" viewBox="0 0 225 225" fill="none" xmlns="http://www.w3.org/2000/svg">
<path d="M42 1.5H183C205.368 1.5 223.5 19.6325 223.5 42V183C223.5 205.368 205.368 223.5 183 223.5H42C19.6325 223.5 1.5 205.368 1.5 183V42C1.5 19.6325 19.6325 1.5 42 1.5Z" fill="url(#paint0_linear)" stroke="white" stroke-width="3"/>
<path d="M81.1967 40.1301C85.8293 38.2771 96.6383 45.5347 102.043 49.3952C96.2523 49.3952 79.2665 53.6417 67.299 58.6603C64.2107 62.5208 57.3391 72.0947 54.5595 79.5068C51.0851 88.7719 55.7177 99.1952 49.927 102.67C45.2945 105.449 45.2942 103.828 44.1363 102.67C42.9784 101.511 38.3454 99.0885 36.0294 94.5626C33.7133 90.0367 36.0294 51.7115 36.0294 51.7115C36.0294 51.7115 34.8713 45.9207 49.927 40.1301C64.9827 34.3395 75.406 42.4464 81.1967 40.1301Z" fill="#E4B872" stroke="black"/>
<path d="M91.6197 175.632C83.2811 180.265 71.9314 177.562 67.2988 175.632C47.8421 175.632 49.9268 152.469 53.4012 140.888C45.0626 139.035 49.9268 120.814 53.4012 111.935C58.9603 108.229 58.0338 92.6323 56.8756 85.2975C55.0226 79.7384 63.8244 67.9254 71.9314 60.9766C80.0384 54.0278 91.7578 51.2984 104.359 49.3952C122.32 46.6826 145.287 50.5533 148.368 64.451C151.45 78.3486 148.368 89.93 148.368 89.93C148.368 89.93 145.666 104.214 148.368 111.935C153.928 113.788 138.331 140.502 129.838 153.628C120.573 159.032 99.9583 171 91.6197 175.632Z" fill="#D9C5A2" stroke="black"/>
<path d="M56.8545 144.362C55.3998 146.1 53.1451 150.408 55.7635 153.743C59.0365 157.913 60.1275 158.955 63.4005 162.082C66.6735 165.209 79.7656 165.209 85.2206 165.209C90.6757 165.209 107.834 162.082 105.517 155.944" stroke="black" stroke-width="3"/>
<path d="M66.1407 143.204H53.4012L61.5081 161.735L81.1965 165.209C85.829 167.988 92.3918 162.507 95.0941 159.418C88.6086 162.198 74.6337 147.451 68.457 139.73C68.0709 140.888 67.0672 143.204 66.1407 143.204Z" fill="#2D2D2D" stroke="black"/>
<path d="M80.0384 158.26L81.4644 154.446L78.8733 150.993L74.4538 146.961L70.0484 142.641L66.9958 144.689L61.3191 142.567L62.047 144.081L66.5883 145.779L68.0441 148.807L71.8576 148.991L74.2449 152.989L77.1268 152.203L80.0384 158.26Z" fill="white" stroke="black" stroke-width="0.2"/>
<path d="M61.5082 146.679V155.944L65.1655 161.238L71.2609 163.885L78.5755 165.209H84.6709L83.4518 162.562H78.5755L76.1373 157.267L72.48 159.915L68.8227 153.297L66.3845 157.267L61.5082 146.679Z" fill="white" stroke="black" stroke-width="0.2"/>
<path d="M212.066 103.828C212.066 94.5626 169.987 73.7161 149.527 64.451V87.6137C155.317 91.0882 152.538 91.3198 159.95 96.8788C169.215 103.828 155.317 120.042 155.317 133.939C155.317 147.837 186.587 139.73 195.852 133.939C205.117 128.149 212.066 121.2 212.066 103.828Z" fill="#E4B872" stroke="black"/>
<path d="M61.5082 158.26C59.6551 155.481 65.3686 151.697 68.457 150.153L75.4058 147.837L80.0384 153.628L76.564 154.786C76.1779 160.962 74.7109 175.169 71.9314 182.581C69.1519 189.993 63.8244 183.353 61.5082 179.107C54.5593 172.158 63.8244 161.735 61.5082 158.26Z" fill="#DD1919" stroke="black"/>
<path d="M100.373 124.568C100.373 124.797 100.319 124.96 100.213 125.056C100.109 125.152 99.9352 125.2 99.6926 125.2H98.9086V122.4H99.6446C99.8846 122.4 100.066 122.449 100.189 122.548C100.311 122.644 100.373 122.802 100.373 123.024V124.568ZM100.025 122.988C100.025 122.9 99.9979 122.83 99.9446 122.78C99.8912 122.726 99.8206 122.7 99.7326 122.7H99.2566V124.9H99.7286C99.8299 124.9 99.9046 124.877 99.9526 124.832C100.001 124.784 100.025 124.709 100.025 124.608V122.988ZM102.55 124.52C102.55 124.746 102.487 124.917 102.362 125.032C102.239 125.144 102.062 125.2 101.83 125.2H101.694C101.462 125.2 101.283 125.144 101.158 125.032C101.035 124.917 100.974 124.746 100.974 124.52V123.08C100.974 122.853 101.035 122.684 101.158 122.572C101.283 122.457 101.462 122.4 101.694 122.4H101.83C102.062 122.4 102.239 122.457 102.362 122.572C102.487 122.684 102.55 122.853 102.55 123.08V124.52ZM102.202 123.004C102.202 122.921 102.171 122.85 102.11 122.792C102.049 122.733 101.969 122.704 101.87 122.704H101.654C101.555 122.704 101.475 122.733 101.414 122.792C101.353 122.85 101.322 122.921 101.322 123.004V124.596C101.322 124.678 101.353 124.749 101.414 124.808C101.475 124.866 101.555 124.896 101.654 124.896H101.87C101.969 124.896 102.049 124.866 102.11 124.808C102.171 124.749 102.202 124.678 102.202 124.596V123.004ZM103.87 125.2C103.638 125.2 103.459 125.144 103.334 125.032C103.211 124.917 103.15 124.746 103.15 124.52V123.08C103.15 122.853 103.211 122.684 103.334 122.572C103.459 122.457 103.638 122.4 103.87 122.4H104.41V122.704H103.83C103.731 122.704 103.651 122.733 103.59 122.792C103.528 122.85 103.498 122.921 103.498 123.004V124.596C103.498 124.678 103.528 124.749 103.59 124.808C103.651 124.866 103.731 124.896 103.83 124.896H104.198V124.028H103.862V123.728H104.53V125.2H103.87ZM104.823 125.88V125.58H106.839V125.88H104.823ZM107.102 124.848L107.702 123.936C107.79 123.802 107.848 123.71 107.878 123.66C107.907 123.606 107.927 123.554 107.938 123.504C107.948 123.453 107.954 123.38 107.954 123.284V123.004C107.954 122.921 107.923 122.85 107.862 122.792C107.8 122.733 107.72 122.704 107.622 122.704H107.182V122.4H107.582C107.814 122.4 107.991 122.457 108.114 122.572C108.239 122.684 108.302 122.853 108.302 123.08V123.248C108.302 123.381 108.295 123.482 108.282 123.552C108.268 123.621 108.244 123.686 108.21 123.748C108.178 123.809 108.114 123.913 108.018 124.06L107.466 124.896H108.382V125.2H107.102V124.848ZM109.577 125.2H109.221L109.889 122.7H109.001V122.4H110.221V122.788L109.577 125.2ZM112.104 124.568C112.104 124.789 112.05 124.95 111.944 125.052C111.837 125.15 111.664 125.2 111.424 125.2H110.94V124.9H111.46C111.561 124.9 111.636 124.877 111.684 124.832C111.732 124.784 111.756 124.709 111.756 124.608V124.1C111.756 124.012 111.729 123.942 111.676 123.892C111.622 123.838 111.552 123.812 111.464 123.812H110.98V122.4H112.044V122.7H111.32V123.512H111.444C111.649 123.512 111.81 123.562 111.928 123.664C112.045 123.765 112.104 123.922 112.104 124.136V124.568ZM112.747 123.08C112.747 122.861 112.807 122.693 112.927 122.576C113.047 122.458 113.197 122.4 113.379 122.4H113.479C113.66 122.4 113.811 122.458 113.931 122.576C114.051 122.693 114.111 122.861 114.111 123.08V124.52C114.111 124.746 114.049 124.917 113.927 125.032C113.807 125.144 113.631 125.2 113.399 125.2H112.979V124.896H113.439C113.537 124.896 113.617 124.866 113.679 124.808C113.74 124.749 113.771 124.678 113.771 124.596V124.16H113.419C113.189 124.16 113.02 124.109 112.911 124.008C112.801 123.906 112.747 123.744 112.747 123.52V123.08ZM113.771 123.004C113.771 122.918 113.743 122.846 113.687 122.788C113.631 122.729 113.555 122.7 113.459 122.7H113.399C113.303 122.7 113.227 122.729 113.171 122.788C113.115 122.846 113.087 122.918 113.087 123.004V123.596C113.087 123.678 113.111 123.744 113.159 123.792C113.209 123.837 113.283 123.86 113.379 123.86H113.771V123.004Z" fill="black"/>
<path d="M91.6198 128.149C91.6198 133.266 78.3276 139.73 71.9314 139.73C65.5352 139.73 61.5082 128.633 61.5082 123.516C61.5082 118.399 66.1407 110.776 75.4058 113.093C81.802 113.093 93.936 122.358 91.6198 128.149Z" fill="black"/>
<path d="M131.905 108.922C131.905 109.882 131.57 110.504 131.009 110.924C130.431 111.356 129.586 111.593 128.531 111.707C127.481 111.82 126.256 111.808 124.943 111.766C124.59 111.754 124.229 111.741 123.865 111.727C122.883 111.691 121.87 111.653 120.872 111.653C118.195 111.653 115.781 110.833 114.042 109.521C112.303 108.208 111.25 106.413 111.25 104.451C111.25 102.489 112.303 100.695 114.042 99.382C115.781 98.0693 118.195 97.25 120.872 97.25C123.489 97.25 126.246 99.1339 128.369 101.582C129.425 102.799 130.312 104.142 130.933 105.432C131.557 106.725 131.905 107.946 131.905 108.922Z" fill="#DBDBDB" stroke="black" stroke-width="0.5"/>
<path d="M125.103 104.451C125.103 106.92 123.209 108.922 120.872 108.922C118.535 108.922 116.641 106.92 116.641 104.451C116.641 101.982 118.535 99.9805 120.872 99.9805C123.209 99.9805 125.103 101.982 125.103 104.451Z" fill="#FF0000"/>
<path d="M122.282 104.451C122.282 103.628 121.651 102.961 120.872 102.961C120.093 102.961 119.462 103.628 119.462 104.451C119.462 105.274 120.093 105.942 120.872 105.942C121.651 105.942 122.282 105.274 122.282 104.451Z" fill="black"/>
<path d="M89.75 95.2418C89.75 96.3029 89.5306 97.0942 89.1242 97.6925C88.7184 98.2899 88.1087 98.7207 87.2794 99.029C85.6024 99.6524 83.1026 99.75 79.8076 99.75C76.5677 99.75 74.0806 98.8744 72.4084 97.485C70.739 96.0979 69.8651 94.1861 69.8651 92.0697C69.8651 89.9532 70.739 88.0414 72.4084 86.6544C74.0806 85.2649 76.5677 84.3893 79.8076 84.3893C82.9965 84.3893 85.4773 86.019 87.1689 88.2013C88.8647 90.3889 89.75 93.1113 89.75 95.2418Z" fill="#DBDBDB" stroke="black" stroke-width="0.5"/>
<path d="M84.9037 92.0697C84.9037 94.6976 82.6221 96.8279 79.8075 96.8279C76.993 96.8279 74.7113 94.6976 74.7113 92.0697C74.7113 89.4418 76.993 87.3115 79.8075 87.3115C82.6221 87.3115 84.9037 89.4418 84.9037 92.0697Z" fill="#FF0000"/>
<path d="M81.5063 92.0697C81.5063 91.1937 80.7457 90.4836 79.8075 90.4836C78.8693 90.4836 78.1088 91.1937 78.1088 92.0697C78.1088 92.9456 78.8693 93.6557 79.8075 93.6557C80.7457 93.6557 81.5063 92.9456 81.5063 92.0697Z" fill="black"/>
<defs>
<linearGradient id="paint0_linear" x1="17" y1="9.49999" x2="209.5" y2="213" gradientUnits="userSpaceOnUse">
<stop stop-color="#F8630F"/>
<stop offset="0.309441" stop-color="#F8630F"/>
<stop offset="1" stop-color="#F1A378"/>
</linearGradient>
</defs>
</svg>
