<svg width="72" height="63" viewBox="0 0 72 63" fill="none" xmlns="http://www.w3.org/2000/svg">
<g filter="url(#filter0_d)">
<g filter="url(#filter1_d)">
<path d="M19.6443 8.58307C20.9123 8.07584 23.859 10.0912 25.3383 11.1479C23.8329 11.4216 20.6853 12.2428 17.1271 14.0221C16.2818 15.0788 13.1143 17.3327 12.3536 19.3616C11.4026 21.8978 12.6706 24.7509 11.0856 25.702C9.81766 26.4628 9.81759 26.019 9.50066 25.702C9.18373 25.385 7.91566 24.7217 7.28174 23.4829C6.64782 22.244 7.28174 11.7532 7.28174 11.7532C7.28174 11.7532 6.96477 10.1681 11.0856 8.58307C15.2065 6.998 18.0594 9.2171 19.6443 8.58307Z" fill="#00FFF0" stroke="black" stroke-width="3"/>
<path d="M22.4972 45.674C20.2148 46.9421 17.1083 46.2024 15.8404 45.674C10.515 45.674 11.0856 39.3337 12.0365 36.1635C9.7542 35.6563 11.0856 30.6685 12.0365 28.2381C13.5581 27.2236 13.3045 22.9545 12.9875 20.9467C12.4803 19.425 14.8894 16.1915 17.1083 14.2894C19.3273 12.3873 22.535 11.6401 25.9841 11.1192C30.9001 10.3767 37.1861 11.4362 38.0297 15.2404C38.8732 19.0446 38.0297 22.2148 38.0297 22.2148C38.0297 22.2148 37.29 26.1246 38.0297 28.2381C39.5512 28.7453 35.2824 36.0578 32.9578 39.6507C30.4219 41.1301 24.7795 44.4059 22.4972 45.674Z" fill="#00FFF0" stroke="black"/>
<path d="M12.2005 36.8785C11.8023 37.354 12.402 38.8648 12.7479 39.7526C13.2745 41.1046 13.8776 41.109 14.7734 41.9649C15.6693 42.8209 19.2527 42.8209 20.7457 42.8209C22.2388 42.8209 24.2435 40.9844 22.6013 41.5319" stroke="black" stroke-width="3"/>
<path d="M15.5234 36.7975H12.0365L14.2555 41.8698L19.6443 42.8209C20.9122 43.5817 22.7085 42.0812 23.4482 41.2358C21.673 41.9966 17.848 37.9599 16.1574 35.8465C16.0517 36.1635 15.777 36.7975 15.5234 36.7975Z" fill="#2D2D2D" stroke="black"/>
<path d="M19.3273 40.9188L19.7176 39.8747L19.0084 38.9295L17.7987 37.8258L16.5929 36.6434L15.7574 37.2039L14.2037 36.623L14.4029 37.0375L15.6459 37.5022L16.0444 38.3312L17.0881 38.3815L17.7416 39.4758L18.5304 39.2608L19.3273 40.9188Z" fill="white" stroke="black" stroke-width="0.2"/>
<path d="M14.2555 37.7486V40.2847L15.2565 41.7339L16.9248 42.4586L18.9269 42.8209H20.5952L20.2616 42.0963H18.9269L18.2595 40.647L17.2585 41.3716L16.2575 39.5601L15.5902 40.647L14.2555 37.7486Z" fill="white" stroke="black" stroke-width="0.2"/>
<path d="M55.4641 26.019C55.4641 23.4829 43.9468 17.7766 38.3466 15.2404V21.5808C39.9316 22.5318 39.1708 22.5952 41.1995 24.1169C43.7355 26.019 39.9316 30.4572 39.9316 34.2614C39.9316 38.0656 48.4903 35.8465 51.0262 34.2614C53.5621 32.6763 55.4641 30.7742 55.4641 26.019Z" fill="#00FFF0" stroke="black" stroke-width="3"/>
<path d="M14.2554 40.9188C13.7483 40.1579 15.3121 39.1223 16.1574 38.6996L18.0593 38.0656L19.3273 39.6507L18.3763 39.9677C18.2706 41.6585 17.8691 45.5472 17.1084 47.5761C16.3476 49.605 14.8894 47.7875 14.2554 46.6251C12.3535 44.723 14.8894 41.8698 14.2554 40.9188Z" fill="#DD1919" stroke="black"/>
<path d="M26.2031 34.1422C26.2031 34.3716 26.1498 34.5342 26.0431 34.6302C25.9391 34.7262 25.7658 34.7742 25.5231 34.7742H24.7391V31.9742H25.4751C25.7151 31.9742 25.8965 32.0236 26.0191 32.1222C26.1418 32.2182 26.2031 32.3769 26.2031 32.5982V34.1422ZM25.8551 32.5622C25.8551 32.4742 25.8285 32.4049 25.7751 32.3542C25.7218 32.3009 25.6511 32.2742 25.5631 32.2742H25.0871V34.4742H25.5591C25.6605 34.4742 25.7351 34.4516 25.7831 34.4062C25.8311 34.3582 25.8551 34.2836 25.8551 34.1822V32.5622ZM28.3806 34.0942C28.3806 34.3209 28.3179 34.4916 28.1926 34.6062C28.0699 34.7182 27.8926 34.7742 27.6606 34.7742H27.5246C27.2926 34.7742 27.1139 34.7182 26.9886 34.6062C26.8659 34.4916 26.8046 34.3209 26.8046 34.0942V32.6542C26.8046 32.4276 26.8659 32.2582 26.9886 32.1462C27.1139 32.0316 27.2926 31.9742 27.5246 31.9742H27.6606C27.8926 31.9742 28.0699 32.0316 28.1926 32.1462C28.3179 32.2582 28.3806 32.4276 28.3806 32.6542V34.0942ZM28.0326 32.5782C28.0326 32.4956 28.0019 32.4249 27.9406 32.3662C27.8793 32.3076 27.7993 32.2782 27.7006 32.2782H27.4846C27.3859 32.2782 27.3059 32.3076 27.2446 32.3662C27.1833 32.4249 27.1526 32.4956 27.1526 32.5782V34.1702C27.1526 34.2529 27.1833 34.3236 27.2446 34.3822C27.3059 34.4409 27.3859 34.4702 27.4846 34.4702H27.7006C27.7993 34.4702 27.8793 34.4409 27.9406 34.3822C28.0019 34.3236 28.0326 34.2529 28.0326 34.1702V32.5782ZM29.7004 34.7742C29.4684 34.7742 29.2897 34.7182 29.1644 34.6062C29.0417 34.4916 28.9804 34.3209 28.9804 34.0942V32.6542C28.9804 32.4276 29.0417 32.2582 29.1644 32.1462C29.2897 32.0316 29.4684 31.9742 29.7004 31.9742H30.2404V32.2782H29.6604C29.5617 32.2782 29.4817 32.3076 29.4204 32.3662C29.359 32.4249 29.3284 32.4956 29.3284 32.5782V34.1702C29.3284 34.2529 29.359 34.3236 29.4204 34.3822C29.4817 34.4409 29.5617 34.4702 29.6604 34.4702H30.0284V33.6022H29.6924V33.3022H30.3604V34.7742H29.7004ZM30.6533 35.4542V35.1542H32.6693V35.4542H30.6533ZM32.9324 34.4222L33.5324 33.5102C33.6204 33.3769 33.679 33.2849 33.7084 33.2342C33.7377 33.1809 33.7577 33.1289 33.7684 33.0782C33.779 33.0276 33.7844 32.9542 33.7844 32.8582V32.5782C33.7844 32.4956 33.7537 32.4249 33.6924 32.3662C33.631 32.3076 33.551 32.2782 33.4524 32.2782H33.0124V31.9742H33.4124C33.6444 31.9742 33.8217 32.0316 33.9444 32.1462C34.0697 32.2582 34.1324 32.4276 34.1324 32.6542V32.8222C34.1324 32.9556 34.1257 33.0569 34.1124 33.1262C34.099 33.1956 34.075 33.2609 34.0404 33.3222C34.0084 33.3836 33.9444 33.4876 33.8484 33.6342L33.2964 34.4702H34.2124V34.7742H32.9324V34.4222ZM35.4073 34.7742H35.0513L35.7193 32.2742H34.8313V31.9742H36.0513V32.3622L35.4073 34.7742ZM37.9342 34.1422C37.9342 34.3636 37.8809 34.5249 37.7742 34.6262C37.6675 34.7249 37.4942 34.7742 37.2542 34.7742H36.7702V34.4742H37.2902C37.3915 34.4742 37.4662 34.4516 37.5142 34.4062C37.5622 34.3582 37.5862 34.2836 37.5862 34.1822V33.6742C37.5862 33.5862 37.5595 33.5169 37.5062 33.4662C37.4529 33.4129 37.3822 33.3862 37.2942 33.3862H36.8102V31.9742H37.8742V32.2742H37.1502V33.0862H37.2742C37.4795 33.0862 37.6409 33.1369 37.7582 33.2382C37.8755 33.3396 37.9342 33.4969 37.9342 33.7102V34.1422ZM38.5771 32.6542C38.5771 32.4356 38.6371 32.2676 38.7571 32.1502C38.8771 32.0329 39.0278 31.9742 39.2091 31.9742H39.3091C39.4904 31.9742 39.6411 32.0329 39.7611 32.1502C39.8811 32.2676 39.9411 32.4356 39.9411 32.6542V34.0942C39.9411 34.3209 39.8798 34.4916 39.7571 34.6062C39.6371 34.7182 39.4611 34.7742 39.2291 34.7742H38.8091V34.4702H39.2691C39.3678 34.4702 39.4478 34.4409 39.5091 34.3822C39.5704 34.3236 39.6011 34.2529 39.6011 34.1702V33.7342H39.2491C39.0198 33.7342 38.8504 33.6836 38.7411 33.5822C38.6318 33.4809 38.5771 33.3182 38.5771 33.0942V32.6542ZM39.6011 32.5782C39.6011 32.4929 39.5731 32.4209 39.5171 32.3622C39.4611 32.3036 39.3851 32.2742 39.2891 32.2742H39.2291C39.1331 32.2742 39.0571 32.3036 39.0011 32.3622C38.9451 32.4209 38.9171 32.4929 38.9171 32.5782V33.1702C38.9171 33.2529 38.9411 33.3182 38.9891 33.3662C39.0398 33.4116 39.1131 33.4342 39.2091 33.4342H39.6011V32.5782Z" fill="black"/>
<path d="M22.4972 32.6763C22.4972 34.077 18.859 35.8465 17.1084 35.8465C15.3577 35.8465 14.2555 32.8089 14.2555 31.4083C14.2555 30.0076 15.5234 27.9211 18.0593 28.5551C19.81 28.5551 23.1312 31.0912 22.4972 32.6763Z" fill="black"/>
<path d="M16.5797 32.9094C16.5797 32.4979 16.0186 32.0882 15.6217 32.0882C15.2249 32.0882 15.0743 33.3191 15.0743 33.7306C15.0743 34.1422 15.5329 34.2781 15.9297 34.2781C16.3265 34.2781 16.5797 33.321 16.5797 32.9094Z" fill="#292222"/>
<path d="M19.3168 34.0956C19.3168 33.684 18.5845 33.4569 18.1877 33.4569C17.7909 33.4569 17.6745 34.0034 17.6745 34.4149C17.6745 34.8265 17.9962 35.373 18.393 35.373C18.7898 35.373 19.3168 34.5071 19.3168 34.0956Z" fill="#292222"/>
<path d="M33.3418 27.4135C33.3418 27.6263 33.2717 27.7396 33.1694 27.816C33.0506 27.9048 32.8587 27.9653 32.5806 27.9953C32.3068 28.0248 31.9829 28.0219 31.6238 28.0104C31.5291 28.0074 31.4318 28.0037 31.3329 28C31.063 27.9899 30.7806 27.9794 30.5037 27.9794C29.8068 27.9794 29.1854 27.7658 28.7437 27.4324C28.3022 27.0991 28.0517 26.6573 28.0517 26.1897C28.0517 25.7221 28.3022 25.2803 28.7437 24.947C29.1854 24.6136 29.8068 24.4001 30.5037 24.4001C31.1402 24.4001 31.8489 24.8664 32.4185 25.5232C32.6978 25.8451 32.9313 26.1995 33.0939 26.5369C33.2585 26.8783 33.3418 27.1843 33.3418 27.4135Z" fill="#DBDBDB" stroke="black" stroke-width="0.5"/>
<path d="M31.6617 26.1897C31.6617 26.8656 31.1433 27.4135 30.5037 27.4135C29.8642 27.4135 29.3457 26.8656 29.3457 26.1897C29.3457 25.5138 29.8642 24.9659 30.5037 24.9659C31.1433 24.9659 31.6617 25.5138 31.6617 26.1897Z" fill="#FF0000"/>
<path d="M30.8897 26.1897C30.8897 25.9644 30.7169 25.7818 30.5037 25.7818C30.2905 25.7818 30.1177 25.9644 30.1177 26.1897C30.1177 26.415 30.2905 26.5976 30.5037 26.5976C30.7169 26.5976 30.8897 26.415 30.8897 26.1897Z" fill="black"/>
</g>
<g filter="url(#filter2_d)">
<path d="M21.8038 23.6688C21.8038 23.9346 21.749 24.1124 21.6639 24.2376C21.5795 24.3618 21.4479 24.4602 21.2459 24.5353C20.8233 24.6924 20.1742 24.7212 19.2641 24.7212C18.4091 24.7212 17.7727 24.4903 17.3549 24.1432C16.94 23.7984 16.7244 23.3265 16.7244 22.8005C16.7244 22.2745 16.94 21.8026 17.3549 21.4578C17.7727 21.1106 18.4091 20.8797 19.2641 20.8797C20.0681 20.8797 20.6982 21.2887 21.1354 21.8528C21.5767 22.4221 21.8038 23.1288 21.8038 23.6688Z" fill="#DBDBDB" stroke="black" stroke-width="0.5"/>
<path d="M20.6589 22.8004C20.6589 23.5198 20.0344 24.1029 19.2641 24.1029C18.4937 24.1029 17.8692 23.5198 17.8692 22.8004C17.8692 22.0811 18.4937 21.498 19.2641 21.498C20.0344 21.498 20.6589 22.0811 20.6589 22.8004Z" fill="#FF0000"/>
<path d="M19.729 22.8004C19.729 22.5607 19.5209 22.3663 19.2641 22.3663C19.0073 22.3663 18.7991 22.5607 18.7991 22.8004C18.7991 23.0402 19.0073 23.2346 19.2641 23.2346C19.5209 23.2346 19.729 23.0402 19.729 22.8004Z" fill="black"/>
</g>
</g>
<defs>
<filter id="filter0_d" x="1.5" y="6.5" width="59.4641" height="50.4905" filterUnits="userSpaceOnUse" color-interpolation-filters="sRGB">
<feFlood flood-opacity="0" result="BackgroundImageFix"/>
<feColorMatrix in="SourceAlpha" type="matrix" values="0 0 0 0 0 0 0 0 0 0 0 0 0 0 0 0 0 0 127 0"/>
<feOffset dy="4"/>
<feGaussianBlur stdDeviation="2"/>
<feColorMatrix type="matrix" values="0 0 0 0 0 0 0 0 0 0 0 0 0 0 0 0 0 0 0.25 0"/>
<feBlend mode="normal" in2="BackgroundImageFix" result="effect1_dropShadow"/>
<feBlend mode="normal" in="SourceGraphic" in2="effect1_dropShadow" result="shape"/>
</filter>
<filter id="filter1_d" x="0.500004" y="0.5" width="71.4641" height="62.4905" filterUnits="userSpaceOnUse" color-interpolation-filters="sRGB">
<feFlood flood-opacity="0" result="BackgroundImageFix"/>
<feColorMatrix in="SourceAlpha" type="matrix" values="0 0 0 0 0 0 0 0 0 0 0 0 0 0 0 0 0 0 127 0"/>
<feOffset dx="5" dy="4"/>
<feGaussianBlur stdDeviation="5"/>
<feColorMatrix type="matrix" values="0 0 0 0 0 0 0 0 0 0 0 0 0 0 0 0 0 0 0.25 0"/>
<feBlend mode="normal" in2="BackgroundImageFix" result="effect1_dropShadow"/>
<feBlend mode="normal" in="SourceGraphic" in2="effect1_dropShadow" result="shape"/>
</filter>
<filter id="filter2_d" x="11.4744" y="14.6297" width="25.5795" height="24.3415" filterUnits="userSpaceOnUse" color-interpolation-filters="sRGB">
<feFlood flood-opacity="0" result="BackgroundImageFix"/>
<feColorMatrix in="SourceAlpha" type="matrix" values="0 0 0 0 0 0 0 0 0 0 0 0 0 0 0 0 0 0 127 0"/>
<feOffset dx="5" dy="4"/>
<feGaussianBlur stdDeviation="5"/>
<feColorMatrix type="matrix" values="0 0 0 0 0 0 0 0 0 0 0 0 0 0 0 0 0 0 0.25 0"/>
<feBlend mode="normal" in2="BackgroundImageFix" result="effect1_dropShadow"/>
<feBlend mode="normal" in="SourceGraphic" in2="effect1_dropShadow" result="shape"/>
</filter>
</defs>
</svg>
